<mxfile host="app.diagrams.net" modified="2023-06-05T17:27:50.442Z" agent="Mozilla/5.0 (Windows NT 10.0; Win64; x64) AppleWebKit/537.36 (KHTML, like Gecko) Chrome/113.0.0.0 Safari/537.36" etag="ZYartAlvDjz3qHZddKHA" version="21.3.7" type="github">
  <diagram name="Página-1" id="8sU856wzDOoHlOzBl7r8">
    <mxGraphModel dx="794" dy="462" grid="1" gridSize="10" guides="1" tooltips="1" connect="1" arrows="1" fold="1" page="1" pageScale="1" pageWidth="827" pageHeight="1169" math="0" shadow="0">
      <root>
        <mxCell id="0" />
        <mxCell id="1" parent="0" />
        <mxCell id="6tNqzMyHVBPdgjF7WHmt-51" value="" style="edgeStyle=orthogonalEdgeStyle;rounded=0;orthogonalLoop=1;jettySize=auto;html=1;" parent="1" source="6tNqzMyHVBPdgjF7WHmt-1" target="6tNqzMyHVBPdgjF7WHmt-50" edge="1">
          <mxGeometry relative="1" as="geometry" />
        </mxCell>
        <mxCell id="6tNqzMyHVBPdgjF7WHmt-1" value="&lt;font style=&quot;font-size: 8px;&quot;&gt;início&lt;/font&gt;" style="ellipse;whiteSpace=wrap;html=1;" parent="1" vertex="1">
          <mxGeometry x="315" y="20" width="100" height="30" as="geometry" />
        </mxCell>
        <mxCell id="6tNqzMyHVBPdgjF7WHmt-55" value="" style="edgeStyle=orthogonalEdgeStyle;rounded=0;orthogonalLoop=1;jettySize=auto;html=1;" parent="1" source="6tNqzMyHVBPdgjF7WHmt-50" target="6tNqzMyHVBPdgjF7WHmt-54" edge="1">
          <mxGeometry relative="1" as="geometry" />
        </mxCell>
        <mxCell id="6tNqzMyHVBPdgjF7WHmt-50" value="&lt;font style=&quot;font-size: 10px;&quot;&gt;Msg. de Bem vindo&lt;/font&gt;" style="shape=display;whiteSpace=wrap;html=1;align=center;" parent="1" vertex="1">
          <mxGeometry x="325" y="70" width="80" height="40" as="geometry" />
        </mxCell>
        <mxCell id="6tNqzMyHVBPdgjF7WHmt-59" value="" style="edgeStyle=orthogonalEdgeStyle;rounded=0;orthogonalLoop=1;jettySize=auto;html=1;" parent="1" source="6tNqzMyHVBPdgjF7WHmt-52" target="6tNqzMyHVBPdgjF7WHmt-58" edge="1">
          <mxGeometry relative="1" as="geometry" />
        </mxCell>
        <mxCell id="6tNqzMyHVBPdgjF7WHmt-52" value="&lt;div style=&quot;&quot;&gt;&lt;span style=&quot;background-color: initial;&quot;&gt;&lt;br&gt;&lt;/span&gt;&lt;/div&gt;&lt;div style=&quot;&quot;&gt;&lt;span style=&quot;background-color: initial;&quot;&gt;&lt;br&gt;&lt;/span&gt;&lt;/div&gt;&lt;div style=&quot;&quot;&gt;&lt;span style=&quot;background-color: initial;&quot;&gt;Saldo inicical&lt;/span&gt;&lt;br&gt;&lt;/div&gt;" style="shape=manualInput;whiteSpace=wrap;html=1;align=right;" parent="1" vertex="1">
          <mxGeometry x="325" y="190" width="80" height="50" as="geometry" />
        </mxCell>
        <mxCell id="6tNqzMyHVBPdgjF7WHmt-69" value="" style="edgeStyle=orthogonalEdgeStyle;rounded=0;orthogonalLoop=1;jettySize=auto;html=1;" parent="1" source="6tNqzMyHVBPdgjF7WHmt-53" target="6tNqzMyHVBPdgjF7WHmt-68" edge="1">
          <mxGeometry relative="1" as="geometry" />
        </mxCell>
        <mxCell id="6tNqzMyHVBPdgjF7WHmt-53" value="1= Saldo inic. + Qtde.&lt;br&gt;2= Saldo - Qtde.&amp;nbsp;&lt;br&gt;se Q &amp;lt;= S" style="rounded=0;whiteSpace=wrap;html=1;" parent="1" vertex="1">
          <mxGeometry x="305" y="540" width="120" height="40" as="geometry" />
        </mxCell>
        <mxCell id="6tNqzMyHVBPdgjF7WHmt-57" value="" style="edgeStyle=orthogonalEdgeStyle;rounded=0;orthogonalLoop=1;jettySize=auto;html=1;" parent="1" source="6tNqzMyHVBPdgjF7WHmt-54" edge="1">
          <mxGeometry relative="1" as="geometry">
            <mxPoint x="365" y="200" as="targetPoint" />
          </mxGeometry>
        </mxCell>
        <mxCell id="6tNqzMyHVBPdgjF7WHmt-54" value="&lt;font style=&quot;font-size: 10px;&quot;&gt;Qual é o saldo inicial?&lt;/font&gt;" style="shape=display;whiteSpace=wrap;html=1;align=center;size=0.1875;" parent="1" vertex="1">
          <mxGeometry x="325" y="130" width="80" height="40" as="geometry" />
        </mxCell>
        <mxCell id="6tNqzMyHVBPdgjF7WHmt-61" value="" style="edgeStyle=orthogonalEdgeStyle;rounded=0;orthogonalLoop=1;jettySize=auto;html=1;" parent="1" source="6tNqzMyHVBPdgjF7WHmt-58" edge="1">
          <mxGeometry relative="1" as="geometry">
            <mxPoint x="365" y="320" as="targetPoint" />
            <Array as="points">
              <mxPoint x="365" y="320" />
              <mxPoint x="365" y="320" />
            </Array>
          </mxGeometry>
        </mxCell>
        <mxCell id="6tNqzMyHVBPdgjF7WHmt-58" value="&lt;font style=&quot;font-size: 10px;&quot;&gt;Qual o tipo de entrada(1/2)&lt;/font&gt;" style="shape=display;whiteSpace=wrap;html=1;align=center;" parent="1" vertex="1">
          <mxGeometry x="325" y="260" width="80" height="40" as="geometry" />
        </mxCell>
        <mxCell id="6tNqzMyHVBPdgjF7WHmt-63" value="" style="edgeStyle=orthogonalEdgeStyle;rounded=0;orthogonalLoop=1;jettySize=auto;html=1;" parent="1" source="6tNqzMyHVBPdgjF7WHmt-60" target="6tNqzMyHVBPdgjF7WHmt-62" edge="1">
          <mxGeometry relative="1" as="geometry" />
        </mxCell>
        <mxCell id="6tNqzMyHVBPdgjF7WHmt-60" value="&lt;div style=&quot;&quot;&gt;&lt;br&gt;&lt;/div&gt;&lt;div style=&quot;&quot;&gt;&lt;span style=&quot;background-color: initial;&quot;&gt;&amp;nbsp; &amp;nbsp; &amp;nbsp; &amp;nbsp; Tipo de&amp;nbsp; &amp;nbsp; &amp;nbsp; &amp;nbsp; &amp;nbsp;entrada&lt;/span&gt;&lt;br&gt;&lt;/div&gt;" style="shape=manualInput;whiteSpace=wrap;html=1;align=center;" parent="1" vertex="1">
          <mxGeometry x="325" y="310" width="80" height="50" as="geometry" />
        </mxCell>
        <mxCell id="6tNqzMyHVBPdgjF7WHmt-66" value="" style="edgeStyle=orthogonalEdgeStyle;rounded=0;orthogonalLoop=1;jettySize=auto;html=1;entryX=0.479;entryY=0.172;entryDx=0;entryDy=0;entryPerimeter=0;" parent="1" source="6tNqzMyHVBPdgjF7WHmt-62" target="6tNqzMyHVBPdgjF7WHmt-64" edge="1">
          <mxGeometry relative="1" as="geometry">
            <Array as="points">
              <mxPoint x="365" y="440" />
            </Array>
          </mxGeometry>
        </mxCell>
        <mxCell id="6tNqzMyHVBPdgjF7WHmt-62" value="&lt;font style=&quot;font-size: 10px;&quot;&gt;Qual a quantidadade de peças?&lt;/font&gt;" style="shape=display;whiteSpace=wrap;html=1;align=center;" parent="1" vertex="1">
          <mxGeometry x="325" y="380" width="80" height="40" as="geometry" />
        </mxCell>
        <mxCell id="6tNqzMyHVBPdgjF7WHmt-67" value="" style="edgeStyle=orthogonalEdgeStyle;rounded=0;orthogonalLoop=1;jettySize=auto;html=1;" parent="1" source="6tNqzMyHVBPdgjF7WHmt-64" target="6tNqzMyHVBPdgjF7WHmt-53" edge="1">
          <mxGeometry relative="1" as="geometry" />
        </mxCell>
        <mxCell id="6tNqzMyHVBPdgjF7WHmt-64" value="&lt;div style=&quot;text-align: right;&quot;&gt;&lt;br&gt;&lt;/div&gt;&lt;div style=&quot;text-align: right;&quot;&gt;&lt;span style=&quot;background-color: initial;&quot;&gt;&lt;font style=&quot;font-size: 11px;&quot;&gt;&lt;br&gt;&lt;/font&gt;&lt;/span&gt;&lt;/div&gt;&lt;div style=&quot;text-align: right;&quot;&gt;&lt;span style=&quot;background-color: initial;&quot;&gt;&lt;font style=&quot;font-size: 11px;&quot;&gt;Quantidade de peças&lt;/font&gt;&lt;/span&gt;&lt;br&gt;&lt;/div&gt;" style="shape=manualInput;whiteSpace=wrap;html=1;align=center;size=27;" parent="1" vertex="1">
          <mxGeometry x="325" y="440" width="80" height="60" as="geometry" />
        </mxCell>
        <mxCell id="6tNqzMyHVBPdgjF7WHmt-71" value="" style="edgeStyle=orthogonalEdgeStyle;rounded=0;orthogonalLoop=1;jettySize=auto;html=1;" parent="1" source="6tNqzMyHVBPdgjF7WHmt-93" target="6tNqzMyHVBPdgjF7WHmt-70" edge="1">
          <mxGeometry relative="1" as="geometry" />
        </mxCell>
        <mxCell id="6tNqzMyHVBPdgjF7WHmt-73" value="" style="edgeStyle=orthogonalEdgeStyle;rounded=0;orthogonalLoop=1;jettySize=auto;html=1;" parent="1" source="6tNqzMyHVBPdgjF7WHmt-92" target="6tNqzMyHVBPdgjF7WHmt-72" edge="1">
          <mxGeometry relative="1" as="geometry" />
        </mxCell>
        <mxCell id="6tNqzMyHVBPdgjF7WHmt-68" value="&lt;br&gt;É do tipo&amp;nbsp;&lt;br&gt;1?" style="rhombus;whiteSpace=wrap;html=1;rounded=0;" parent="1" vertex="1">
          <mxGeometry x="325" y="610" width="80" height="80" as="geometry" />
        </mxCell>
        <mxCell id="6tNqzMyHVBPdgjF7WHmt-75" value="" style="edgeStyle=orthogonalEdgeStyle;rounded=0;orthogonalLoop=1;jettySize=auto;html=1;" parent="1" source="6tNqzMyHVBPdgjF7WHmt-94" target="6tNqzMyHVBPdgjF7WHmt-74" edge="1">
          <mxGeometry relative="1" as="geometry" />
        </mxCell>
        <mxCell id="6tNqzMyHVBPdgjF7WHmt-78" style="edgeStyle=orthogonalEdgeStyle;rounded=0;orthogonalLoop=1;jettySize=auto;html=1;exitX=0.5;exitY=1;exitDx=0;exitDy=0;" parent="1" source="6tNqzMyHVBPdgjF7WHmt-70" target="6tNqzMyHVBPdgjF7WHmt-77" edge="1">
          <mxGeometry relative="1" as="geometry">
            <mxPoint x="365" y="880" as="targetPoint" />
            <Array as="points">
              <mxPoint x="366" y="840" />
              <mxPoint x="366" y="890" />
            </Array>
          </mxGeometry>
        </mxCell>
        <mxCell id="6tNqzMyHVBPdgjF7WHmt-70" value="Q &amp;lt;= S" style="rhombus;whiteSpace=wrap;html=1;rounded=0;" parent="1" vertex="1">
          <mxGeometry x="325" y="760" width="80" height="80" as="geometry" />
        </mxCell>
        <mxCell id="6tNqzMyHVBPdgjF7WHmt-80" value="" style="edgeStyle=orthogonalEdgeStyle;rounded=0;orthogonalLoop=1;jettySize=auto;html=1;" parent="1" source="6tNqzMyHVBPdgjF7WHmt-72" target="6tNqzMyHVBPdgjF7WHmt-79" edge="1">
          <mxGeometry relative="1" as="geometry" />
        </mxCell>
        <mxCell id="6tNqzMyHVBPdgjF7WHmt-72" value="Somar:&lt;br&gt;&amp;nbsp;Saldo inic. + Qtde" style="whiteSpace=wrap;html=1;rounded=0;" parent="1" vertex="1">
          <mxGeometry x="520" y="625" width="120" height="50" as="geometry" />
        </mxCell>
        <mxCell id="6tNqzMyHVBPdgjF7WHmt-83" style="edgeStyle=orthogonalEdgeStyle;rounded=0;orthogonalLoop=1;jettySize=auto;html=1;" parent="1" source="6tNqzMyHVBPdgjF7WHmt-74" edge="1">
          <mxGeometry relative="1" as="geometry">
            <mxPoint x="680" y="620" as="targetPoint" />
          </mxGeometry>
        </mxCell>
        <mxCell id="6tNqzMyHVBPdgjF7WHmt-74" value="Subtrair:&lt;br&gt;Saldo inic. - Qtde.&amp;nbsp;" style="rounded=0;whiteSpace=wrap;html=1;" parent="1" vertex="1">
          <mxGeometry x="520" y="775" width="120" height="50" as="geometry" />
        </mxCell>
        <mxCell id="6tNqzMyHVBPdgjF7WHmt-76" style="edgeStyle=orthogonalEdgeStyle;rounded=0;orthogonalLoop=1;jettySize=auto;html=1;exitX=0.5;exitY=1;exitDx=0;exitDy=0;" parent="1" source="6tNqzMyHVBPdgjF7WHmt-72" target="6tNqzMyHVBPdgjF7WHmt-72" edge="1">
          <mxGeometry relative="1" as="geometry" />
        </mxCell>
        <mxCell id="6tNqzMyHVBPdgjF7WHmt-84" style="edgeStyle=orthogonalEdgeStyle;rounded=0;orthogonalLoop=1;jettySize=auto;html=1;" parent="1" source="6tNqzMyHVBPdgjF7WHmt-77" edge="1">
          <mxGeometry relative="1" as="geometry">
            <mxPoint x="710" y="600" as="targetPoint" />
          </mxGeometry>
        </mxCell>
        <mxCell id="6tNqzMyHVBPdgjF7WHmt-77" value="&lt;font style=&quot;font-size: 10px;&quot;&gt;Saldo insuficiente&lt;/font&gt;" style="shape=display;whiteSpace=wrap;html=1;align=center;" parent="1" vertex="1">
          <mxGeometry x="530" y="860" width="100" height="60" as="geometry" />
        </mxCell>
        <mxCell id="6tNqzMyHVBPdgjF7WHmt-88" style="edgeStyle=orthogonalEdgeStyle;rounded=0;orthogonalLoop=1;jettySize=auto;html=1;" parent="1" source="6tNqzMyHVBPdgjF7WHmt-79" edge="1">
          <mxGeometry relative="1" as="geometry">
            <mxPoint x="370" y="250" as="targetPoint" />
            <Array as="points">
              <mxPoint x="580" y="250" />
            </Array>
          </mxGeometry>
        </mxCell>
        <mxCell id="6tNqzMyHVBPdgjF7WHmt-89" value="" style="edgeStyle=orthogonalEdgeStyle;rounded=0;orthogonalLoop=1;jettySize=auto;html=1;" parent="1" source="6tNqzMyHVBPdgjF7WHmt-100" target="6tNqzMyHVBPdgjF7WHmt-82" edge="1">
          <mxGeometry relative="1" as="geometry">
            <Array as="points">
              <mxPoint x="670" y="545" />
              <mxPoint x="670" y="545" />
            </Array>
          </mxGeometry>
        </mxCell>
        <mxCell id="6tNqzMyHVBPdgjF7WHmt-79" value="&lt;font style=&quot;font-size: 11px;&quot;&gt;Deseja&lt;br&gt;&lt;div style=&quot;&quot;&gt;&lt;span style=&quot;background-color: initial;&quot;&gt;finalizar o&lt;/span&gt;&lt;/div&gt;programa?&lt;/font&gt;" style="rhombus;whiteSpace=wrap;html=1;rounded=0;align=center;" parent="1" vertex="1">
          <mxGeometry x="535" y="505" width="90" height="80" as="geometry" />
        </mxCell>
        <mxCell id="6tNqzMyHVBPdgjF7WHmt-91" value="" style="edgeStyle=orthogonalEdgeStyle;rounded=0;orthogonalLoop=1;jettySize=auto;html=1;" parent="1" target="6tNqzMyHVBPdgjF7WHmt-90" edge="1">
          <mxGeometry relative="1" as="geometry">
            <mxPoint x="740" y="510" as="sourcePoint" />
            <Array as="points">
              <mxPoint x="740" y="510" />
            </Array>
          </mxGeometry>
        </mxCell>
        <mxCell id="6tNqzMyHVBPdgjF7WHmt-82" value="&lt;div style=&quot;text-align: right;&quot;&gt;&lt;br&gt;&lt;/div&gt;&lt;div style=&quot;text-align: right;&quot;&gt;Sistema&amp;nbsp;&lt;/div&gt;&lt;div style=&quot;text-align: right;&quot;&gt;encerrado&lt;/div&gt;" style="shape=manualInput;whiteSpace=wrap;html=1;align=center;size=27;" parent="1" vertex="1">
          <mxGeometry x="700" y="505" width="80" height="60" as="geometry" />
        </mxCell>
        <mxCell id="6tNqzMyHVBPdgjF7WHmt-85" value="" style="endArrow=classic;html=1;rounded=0;" parent="1" edge="1">
          <mxGeometry width="50" height="50" relative="1" as="geometry">
            <mxPoint x="680" y="620" as="sourcePoint" />
            <mxPoint x="580" y="620" as="targetPoint" />
            <Array as="points" />
          </mxGeometry>
        </mxCell>
        <mxCell id="6tNqzMyHVBPdgjF7WHmt-86" value="" style="endArrow=classic;html=1;rounded=0;" parent="1" edge="1">
          <mxGeometry width="50" height="50" relative="1" as="geometry">
            <mxPoint x="710" y="600" as="sourcePoint" />
            <mxPoint x="580" y="600" as="targetPoint" />
          </mxGeometry>
        </mxCell>
        <mxCell id="6tNqzMyHVBPdgjF7WHmt-90" value="&lt;font style=&quot;font-size: 8px;&quot;&gt;Fim&lt;/font&gt;" style="ellipse;whiteSpace=wrap;html=1;" parent="1" vertex="1">
          <mxGeometry x="690" y="440" width="100" height="30" as="geometry" />
        </mxCell>
        <mxCell id="6tNqzMyHVBPdgjF7WHmt-95" value="" style="edgeStyle=orthogonalEdgeStyle;rounded=0;orthogonalLoop=1;jettySize=auto;html=1;" parent="1" source="6tNqzMyHVBPdgjF7WHmt-70" target="6tNqzMyHVBPdgjF7WHmt-94" edge="1">
          <mxGeometry relative="1" as="geometry">
            <mxPoint x="405" y="760" as="sourcePoint" />
            <mxPoint x="520" y="760" as="targetPoint" />
            <Array as="points">
              <mxPoint x="440" y="800" />
              <mxPoint x="440" y="800" />
            </Array>
          </mxGeometry>
        </mxCell>
        <mxCell id="6tNqzMyHVBPdgjF7WHmt-94" value="Sim" style="text;html=1;align=center;verticalAlign=middle;resizable=0;points=[];autosize=1;strokeColor=none;fillColor=none;" parent="1" vertex="1">
          <mxGeometry x="440" y="785" width="40" height="30" as="geometry" />
        </mxCell>
        <mxCell id="6tNqzMyHVBPdgjF7WHmt-96" value="" style="edgeStyle=orthogonalEdgeStyle;rounded=0;orthogonalLoop=1;jettySize=auto;html=1;" parent="1" source="6tNqzMyHVBPdgjF7WHmt-68" target="6tNqzMyHVBPdgjF7WHmt-92" edge="1">
          <mxGeometry relative="1" as="geometry">
            <mxPoint x="405" y="650" as="sourcePoint" />
            <mxPoint x="520" y="650" as="targetPoint" />
          </mxGeometry>
        </mxCell>
        <mxCell id="6tNqzMyHVBPdgjF7WHmt-92" value="Sim" style="text;html=1;align=center;verticalAlign=middle;resizable=0;points=[];autosize=1;strokeColor=none;fillColor=none;" parent="1" vertex="1">
          <mxGeometry x="440" y="635" width="40" height="30" as="geometry" />
        </mxCell>
        <mxCell id="6tNqzMyHVBPdgjF7WHmt-97" value="" style="edgeStyle=orthogonalEdgeStyle;rounded=0;orthogonalLoop=1;jettySize=auto;html=1;" parent="1" source="6tNqzMyHVBPdgjF7WHmt-68" target="6tNqzMyHVBPdgjF7WHmt-93" edge="1">
          <mxGeometry relative="1" as="geometry">
            <mxPoint x="365" y="690" as="sourcePoint" />
            <mxPoint x="365" y="760" as="targetPoint" />
          </mxGeometry>
        </mxCell>
        <mxCell id="6tNqzMyHVBPdgjF7WHmt-93" value="Não" style="text;html=1;align=center;verticalAlign=middle;resizable=0;points=[];autosize=1;strokeColor=none;fillColor=none;" parent="1" vertex="1">
          <mxGeometry x="340" y="705" width="50" height="30" as="geometry" />
        </mxCell>
        <mxCell id="6tNqzMyHVBPdgjF7WHmt-99" value="" style="edgeStyle=orthogonalEdgeStyle;rounded=0;orthogonalLoop=1;jettySize=auto;html=1;entryX=-0.083;entryY=0.533;entryDx=0;entryDy=0;entryPerimeter=0;" parent="1" source="6tNqzMyHVBPdgjF7WHmt-70" target="6tNqzMyHVBPdgjF7WHmt-94" edge="1">
          <mxGeometry relative="1" as="geometry">
            <mxPoint x="530" y="890" as="targetPoint" />
            <mxPoint x="366" y="839" as="sourcePoint" />
            <Array as="points">
              <mxPoint x="437" y="800" />
            </Array>
          </mxGeometry>
        </mxCell>
        <mxCell id="6tNqzMyHVBPdgjF7WHmt-98" value="Não" style="text;html=1;align=center;verticalAlign=middle;resizable=0;points=[];autosize=1;strokeColor=none;fillColor=none;" parent="1" vertex="1">
          <mxGeometry x="435" y="870" width="50" height="30" as="geometry" />
        </mxCell>
        <mxCell id="6tNqzMyHVBPdgjF7WHmt-101" value="" style="edgeStyle=orthogonalEdgeStyle;rounded=0;orthogonalLoop=1;jettySize=auto;html=1;" parent="1" source="6tNqzMyHVBPdgjF7WHmt-79" target="6tNqzMyHVBPdgjF7WHmt-100" edge="1">
          <mxGeometry relative="1" as="geometry">
            <mxPoint x="625" y="545" as="sourcePoint" />
            <mxPoint x="680" y="545" as="targetPoint" />
            <Array as="points" />
          </mxGeometry>
        </mxCell>
        <mxCell id="6tNqzMyHVBPdgjF7WHmt-100" value="Sim" style="text;html=1;align=center;verticalAlign=middle;resizable=0;points=[];autosize=1;strokeColor=none;fillColor=none;" parent="1" vertex="1">
          <mxGeometry x="640" y="530" width="40" height="30" as="geometry" />
        </mxCell>
        <mxCell id="6tNqzMyHVBPdgjF7WHmt-102" value="Não" style="text;html=1;align=center;verticalAlign=middle;resizable=0;points=[];autosize=1;strokeColor=none;fillColor=none;" parent="1" vertex="1">
          <mxGeometry x="575" y="380" width="50" height="30" as="geometry" />
        </mxCell>
      </root>
    </mxGraphModel>
  </diagram>
</mxfile>
